<?xml version="1.0" encoding="UTF-8" standalone="no"?>
<!-- Created with Inkscape (http://www.inkscape.org/) -->

<svg
   xmlns:dc="http://purl.org/dc/elements/1.1/"
   xmlns:cc="http://creativecommons.org/ns#"
   xmlns:rdf="http://www.w3.org/1999/02/22-rdf-syntax-ns#"
   xmlns:svg="http://www.w3.org/2000/svg"
   xmlns="http://www.w3.org/2000/svg"
   xmlns:sodipodi="http://sodipodi.sourceforge.net/DTD/sodipodi-0.dtd"
   xmlns:inkscape="http://www.inkscape.org/namespaces/inkscape"
   width="744.09448"
   height="1052.3622"
   id="svg4136"
   version="1.1"
   inkscape:version="0.91 r13725"
   viewBox="0 0 744.09448 1052.3622"
   sodipodi:docname="tutorial.svg"
   inkscape:export-filename="C:\Users\pmgbe_000\git\game-development-coursera-exercises\Master\Producción\Game Concept Proposal\tutorial.png"
   inkscape:export-xdpi="200"
   inkscape:export-ydpi="200">
  <sodipodi:namedview
     id="base"
     pagecolor="#ffffff"
     bordercolor="#ffffff"
     borderopacity="0.0"
     inkscape:pageopacity="0.0"
     inkscape:pageshadow="0"
     inkscape:zoom="0.98994949"
     inkscape:cx="-382.55784"
     inkscape:cy="901.5951"
     inkscape:document-units="px"
     inkscape:current-layer="layer1"
     showgrid="false"
     inkscape:window-width="1920"
     inkscape:window-height="1017"
     inkscape:window-x="-8"
     inkscape:window-y="-8"
     inkscape:window-maximized="1" />
  <defs
     id="defs4138" />
  <metadata
     id="metadata4141">
    <rdf:RDF>
      <cc:Work
         rdf:about="">
        <dc:format>image/svg+xml</dc:format>
        <dc:type
           rdf:resource="http://purl.org/dc/dcmitype/StillImage" />
        <dc:title />
      </cc:Work>
    </rdf:RDF>
  </metadata>
  <g
     id="layer1"
     inkscape:groupmode="layer"
     inkscape:label="Layer 1">
    <path
       sodipodi:nodetypes="ssccsscsscccs"
       inkscape:connector-curvature="0"
       id="path4684"
       d="m -322.23828,-93.150391 c -113.25174,2.43e-4 -205.06035,96.3314692 -205.06055,215.162111 2e-4,118.83064 91.80881,215.16187 205.06055,215.16211 41.74068,-0.0879 82.46183,-13.53914 116.72266,-38.55664 0.28067,1.08248 0.75795,2.26363 1.79492,2.88281 l 99.00144,59.11439 c 2.70736,1.61658 78.738017,47.89162 78.738017,47.89162 L 6.3258403,370.77392 C 8.3766957,368.37868 -58.560353,318.34856 -60.939931,316.27955 l -88.899909,-77.29713 c -0.11439,-0.0986 -0.23396,-0.18549 -0.35352,-0.27344 21.48159,-34.75349 32.94568,-75.27453 33.01563,-116.69726 -2e-4,-118.8306418 -91.80881,-215.161868 -205.06055,-215.162111 z"
       style="opacity:0.29300005;fill:#ffff3f;fill-opacity:1;fill-rule:evenodd;stroke:#000000;stroke-width:2.0999999;stroke-miterlimit:4;stroke-dasharray:none;stroke-dashoffset:0;stroke-opacity:1" />
    <flowRoot
       style="font-style:normal;font-weight:normal;font-size:40px;line-height:125%;font-family:sans-serif;letter-spacing:0px;word-spacing:0px;fill:#000000;fill-opacity:1;stroke:none;stroke-width:1px;stroke-linecap:butt;stroke-linejoin:miter;stroke-opacity:1"
       id="flowRoot4686"
       xml:space="preserve"><flowRegion
         id="flowRegion4688"><rect
           y="-76.988365"
           x="-343.45187"
           height="54.548241"
           width="36.365482"
           id="rect4690" /></flowRegion><flowPara
         id="flowPara4692">x</flowPara></flowRoot>    <text
       sodipodi:linespacing="125%"
       id="text4694"
       y="189.69189"
       x="-517.19812"
       style="font-style:normal;font-weight:normal;font-size:40px;line-height:125%;font-family:sans-serif;letter-spacing:0px;word-spacing:0px;fill:#000000;fill-opacity:1;stroke:none;stroke-width:1px;stroke-linecap:butt;stroke-linejoin:miter;stroke-opacity:1"
       xml:space="preserve"><tspan
         y="189.69189"
         x="-517.19812"
         id="tspan4696"
         sodipodi:role="line">x  x</tspan></text>
    <text
       sodipodi:linespacing="125%"
       id="text4698"
       y="181.61069"
       x="-454.56866"
       style="font-style:normal;font-weight:normal;font-size:40px;line-height:125%;font-family:sans-serif;letter-spacing:0px;word-spacing:0px;fill:#000000;fill-opacity:1;stroke:none;stroke-width:1px;stroke-linecap:butt;stroke-linejoin:miter;stroke-opacity:1"
       xml:space="preserve"><tspan
         y="181.61069"
         x="-454.56866"
         id="tspan4700"
         sodipodi:role="line" /></text>
    <text
       sodipodi:linespacing="125%"
       id="text4702"
       y="175.54977"
       x="-452.54834"
       style="font-style:normal;font-weight:normal;font-size:40px;line-height:125%;font-family:sans-serif;letter-spacing:0px;word-spacing:0px;fill:#000000;fill-opacity:1;stroke:none;stroke-width:1px;stroke-linecap:butt;stroke-linejoin:miter;stroke-opacity:1"
       xml:space="preserve"><tspan
         y="175.54977"
         x="-452.54834"
         id="tspan4704"
         sodipodi:role="line" /></text>
    <text
       sodipodi:linespacing="125%"
       id="text4706"
       y="228.07768"
       x="-490.93414"
       style="font-style:normal;font-weight:normal;font-size:40px;line-height:125%;font-family:sans-serif;letter-spacing:0px;word-spacing:0px;fill:#000000;fill-opacity:1;stroke:none;stroke-width:1px;stroke-linecap:butt;stroke-linejoin:miter;stroke-opacity:1"
       xml:space="preserve"><tspan
         y="228.07768"
         x="-490.93414"
         id="tspan4708"
         sodipodi:role="line">x  x</tspan></text>
    <text
       sodipodi:linespacing="125%"
       id="text4710"
       y="260.40259"
       x="-466.69049"
       style="font-style:normal;font-weight:normal;font-size:40px;line-height:125%;font-family:sans-serif;letter-spacing:0px;word-spacing:0px;fill:#000000;fill-opacity:1;stroke:none;stroke-width:1px;stroke-linecap:butt;stroke-linejoin:miter;stroke-opacity:1"
       xml:space="preserve"><tspan
         y="260.40259"
         x="-466.69049"
         id="tspan4712"
         sodipodi:role="line">x  x</tspan></text>
    <text
       transform="scale(1.0841224,0.92240507)"
       sodipodi:linespacing="125%"
       id="text4714"
       y="61.09222"
       x="-197.72156"
       style="font-style:normal;font-weight:normal;font-size:43.36489487px;line-height:125%;font-family:sans-serif;letter-spacing:0px;word-spacing:0px;fill:#000000;fill-opacity:1;stroke:none;stroke-width:1px;stroke-linecap:butt;stroke-linejoin:miter;stroke-opacity:1"
       xml:space="preserve"><tspan
         y="61.09222"
         x="-197.72156"
         id="tspan4716"
         sodipodi:role="line">x x</tspan></text>
    <text
       sodipodi:linespacing="125%"
       id="text4718"
       y="96.757874"
       x="-189.90869"
       style="font-style:normal;font-weight:normal;font-size:40px;line-height:125%;font-family:sans-serif;letter-spacing:0px;word-spacing:0px;fill:#000000;fill-opacity:1;stroke:none;stroke-width:1px;stroke-linecap:butt;stroke-linejoin:miter;stroke-opacity:1"
       xml:space="preserve"><tspan
         y="96.757874"
         x="-189.90869"
         id="tspan4720"
         sodipodi:role="line">x</tspan></text>
    <text
       sodipodi:linespacing="125%"
       id="text4722"
       y="96.757874"
       x="-327.2648"
       style="font-style:normal;font-variant:normal;font-weight:normal;font-stretch:normal;font-size:40px;line-height:125%;font-family:Arial;-inkscape-font-specification:Arial;text-align:center;letter-spacing:0px;word-spacing:0px;text-anchor:middle;fill:#000000;fill-opacity:1;stroke:none;stroke-width:1px;stroke-linecap:butt;stroke-linejoin:miter;stroke-opacity:1"
       xml:space="preserve"><tspan
         y="96.757874"
         x="-327.2648"
         id="tspan4724"
         sodipodi:role="line">Práctica de</tspan><tspan
         id="tspan4726"
         y="146.75787"
         x="-327.2648"
         sodipodi:role="line">objetivos</tspan></text>
    <flowRoot
       style="font-style:normal;font-weight:normal;font-size:27.5px;line-height:125%;font-family:sans-serif;letter-spacing:0px;word-spacing:0px;fill:#000000;fill-opacity:1;stroke:none;stroke-width:1px;stroke-linecap:butt;stroke-linejoin:miter;stroke-opacity:1;"
       id="flowRoot4730"
       xml:space="preserve"><flowRegion
         id="flowRegion4732"><rect
           style="font-size:27.5px"
           y="-165.88179"
           x="-335.37064"
           height="68.690392"
           width="428.30466"
           id="rect4734" /></flowRegion><flowPara
         id="flowPara4736">Este objetivo ataca automáticamente</flowPara></flowRoot>    <flowRoot
       style="fill:black;stroke:none;stroke-opacity:1;stroke-width:1px;stroke-linejoin:miter;stroke-linecap:butt;fill-opacity:1;font-family:sans-serif;font-style:normal;font-weight:normal;font-size:40px;line-height:125%;letter-spacing:0px;word-spacing:0px"
       id="flowRoot4738"
       xml:space="preserve"><flowRegion
         id="flowRegion4740"><rect
           y="-216.38942"
           x="-414.16254"
           height="68.690376"
           width="430.32498"
           id="rect4742" /></flowRegion><flowPara
         id="flowPara4744" /></flowRoot>    <path
       inkscape:connector-curvature="0"
       d="m -30.259871,384.15863 c -2.943609,-2.09474 -5.932313,-4.11639 -8.948005,-6.10675 -1.420492,-0.98864 -3.011658,-1.67514 -4.524413,-2.49733 -1.190669,-0.64713 -2.351605,-1.35231 -3.543492,-1.99965 -1.489474,-0.88783 -2.884531,-1.91073 -4.360703,-2.81765 -0.897345,-0.53214 -1.921752,-0.7817 -2.791688,-1.36796 -1.0511,-0.70835 -1.447969,-1.13721 -2.409009,-2.0095 -2.587581,-2.3438 -5.109194,-4.75552 -7.670399,-7.12687 -2.37437,-2.06891 -4.587666,-4.31278 -6.804923,-6.54674 -1.500449,-1.5314 -3.030895,-3.02817 -4.517158,-4.57166 -0.950002,-1.01687 -1.928756,-1.99072 -3.098778,-2.75015 -2.063354,-1.20636 -4.350269,-1.88182 -6.679737,-2.3386 -1.898862,-0.2934 -3.679335,-0.97933 -5.460173,-1.66855 -1.964834,-1.17362 -4.122322,-1.95584 -6.138156,-3.02056 -1.163625,-0.65231 -2.062389,-1.33464 -2.956645,-2.3077 -0.53592,-0.67826 -0.83764,-1.49675 -1.4834,-2.08341 -0.58604,-0.47361 -0.89117,-1.0973 -1.15981,-1.78134 0,0 4.357596,-2.42613 4.357596,-2.42613 l 0,0 c 0.235417,0.62452 0.51875,1.16173 1.056777,1.58427 0.632008,0.61891 0.978554,1.40996 1.498604,2.11608 0.813812,0.89337 1.76888,1.59451 2.824516,2.18914 1.997876,1.05639 4.103905,1.9067 6.097673,2.97518 1.764643,0.66311 3.533334,1.30269 5.402328,1.61282 2.373236,0.52014 4.699595,1.26167 6.821758,2.4691 1.186483,0.7969 2.186595,1.79928 3.149839,2.85176 1.455861,1.55993 2.981174,3.05034 4.441183,4.60773 2.191467,2.25319 4.440949,4.44627 6.803283,6.52112 2.553794,2.37196 4.985039,4.87151 7.643123,7.1308 1.091135,0.94326 1.230215,1.14923 2.417047,1.86889 0.903027,0.54757 1.949004,0.80569 2.842359,1.3729 1.451412,0.9117 2.792357,1.98347 4.282817,2.83642 2.691267,1.49281 5.384227,2.9862 8.016222,4.57998 3.030037,2.03761 6.061305,4.07478 9.127726,6.05519 0,0 -4.236362,2.64917 -4.236362,2.64917 z"
       id="path4756"
       style="opacity:0.29300005;fill:#000000;fill-opacity:1;fill-rule:evenodd;stroke:#000000;stroke-width:2.0999999;stroke-miterlimit:4;stroke-dasharray:none;stroke-dashoffset:0;stroke-opacity:1" />
    <path
       inkscape:connector-curvature="0"
       d="m -101.81725,326.36011 c -0.11262,3.24488 0.31895,6.47694 0.50163,9.71451 0.27109,6.31227 0.30508,12.63165 0.34686,18.94868 0.11572,6.28219 -0.1153,12.56104 -0.26696,18.84024 -0.083,3.95406 -0.11757,7.90904 -0.11581,11.86394 -0.002,1.62948 0.007,3.25891 0.0186,4.88833 0,0 -4.42206,2.25337 -4.42206,2.25337 l 0,0 c 0.0103,-1.64086 0.0204,-3.28173 0.0397,-4.9225 0.0628,-3.98671 0.16369,-7.97251 0.28223,-11.95796 0.16817,-6.27968 0.40543,-12.55923 0.30385,-18.84242 -0.0345,-6.2932 -0.0675,-12.59076 -0.4297,-18.87548 -0.22909,-3.21527 -0.66274,-6.41636 -0.71531,-9.6398 0,0 4.45692,-2.27091 4.45692,-2.27091 z"
       id="path4758"
       style="opacity:0.29300005;fill:#000000;fill-opacity:1;fill-rule:evenodd;stroke:#000000;stroke-width:2.0999999;stroke-miterlimit:4;stroke-dasharray:none;stroke-dashoffset:0;stroke-opacity:1" />
    <path
       inkscape:connector-curvature="0"
       d="m -100.41644,326.11377 c 5.401231,0.0952 10.801603,0.28403 16.199955,0.48815 7.433776,0.24389 14.856185,0.79727 22.266524,1.42534 3.751588,0.35221 7.514517,0.5419 11.281049,0.61585 0.403797,0.004 0.807593,0.009 1.21139,0.0131 0,0 -3.979383,2.88027 -3.979383,2.88027 l 0,0 c -0.398111,-0.01 -0.796222,-0.0201 -1.194332,-0.0302 -3.730889,-0.1199 -7.458452,-0.33306 -11.17103,-0.73314 -7.358604,-0.71389 -14.738242,-1.29262 -22.130208,-1.4903 -5.502136,-0.15955 -11.009255,-0.33124 -16.513895,-0.24116 0,0 4.02993,-2.92792 4.02993,-2.92792 z"
       id="path4760"
       style="opacity:0.29300005;fill:#000000;fill-opacity:1;fill-rule:evenodd;stroke:#000000;stroke-width:2.0999999;stroke-miterlimit:4;stroke-dasharray:none;stroke-dashoffset:0;stroke-opacity:1" />
    <text
       sodipodi:linespacing="125%"
       id="text4762"
       y="396.2681"
       x="7.5761442"
       style="font-style:normal;font-weight:normal;font-size:40px;line-height:125%;font-family:sans-serif;letter-spacing:0px;word-spacing:0px;fill:#000000;fill-opacity:1;stroke:none;stroke-width:1px;stroke-linecap:butt;stroke-linejoin:miter;stroke-opacity:1"
       xml:space="preserve"><tspan
         y="396.2681"
         x="7.5761442"
         id="tspan4764"
         sodipodi:role="line">Entrada</tspan></text>
    <path
       id="path4534"
       d="m -496.70508,433.60981 0,5 5,0 0,-5 m 0,5 5,0 0,-5 m 0,5 5,0 0,-5 m 0,5 5,0 0,-5 m 0,5 5,0 0,-5 m 0,5 5,0 0,-5 m 0,5 5,0 0,-5 m 0,5 5,0 0,-5 m 0,5 5,0 0,-5 m 0,5 5,0 0,-5 m 0,5 5,0 0,-5 m 0,5 5,0 0,-5 m 0,5 5,0 0,-5 m 0,5 5,0 0,-5 m 0,5 5,0 0,-5 m 0,5 5,0 0,-5 m 0,5 5,0 0,-5 m 0,5 5,0 0,-5 m 0,5 5,0 0,-5 m 0,5 5,0 0,-5 m 0,5 5,0 0,-5 m 0,5 5,0 0,-5 m 0,5 5,0 0,-5 m 0,5 5,0 0,-5 m 0,5 5,0 0,-5 m 0,5 5,0 0,-5 m 0,5 5,0 0,-5 m 0,5 5,0 0,-5 m 0,5 5,0 0,-5 m 0,5 5,0 0,-5 m 0,5 5,0 0,-5 m 0,5 5,0 0,-5 m 0,5 5,0 0,-5 m 0,5 5,0 0,-5 m 0,5 5,0 0,-5 m 0,5 5,0 0,-5 m 0,5 5,0 0,-5 m 0,5 5,0 0,-5 m 0,5 5,0 0,-5 m 0,5 5,0 0,-5 m 0,5 5,0 0,-5 m 0,5 5,0 0,-5 m 0,5 5,0 0,-5 m 0,5 5,0 0,-5 m 0,5 5,0 0,-5 m 0,5 5,0 0,-5 m 0,5 5,0 0,-5 m 0,5 5,0 0,-5 m 0,5 5,0 0,-5 m 0,5 5,0 0,-5 m 0,5 5,0 0,-5 m 0,5 5,0 0,-5 m 0,5 5,0 0,-5 m 0,5 5,0 0,-5 m 0,5 5,0 0,-5 m 0,5 5,0 0,-5 m 0,5 5,0 0,-5 m 0,5 5,0 0,-5 m 0,5 5,0 0,-5 m 0,5 5,0 0,-5 m 0,5 5,0 0,-5 m 0,5 5,0 0,-5 m 0,5 5,0 0,-5 m 0,5 5,0 0,-5 m 0,5 5,0 0,-5 m 0,5 5,0 0,-5 m 0,5 5,0 0,-5 m 0,5 5,0 0,-5 m 0,5 5,0 0,-5 m 0,5 5,0 0,-5 m 0,5 5,0 0,-5 m 0,5 5,0 0,-5 m 0,5 5,0 0,-5 m 0,5 5,0 0,-5 m 0,5 5,0 0,-5 m 0,5 5,0 0,-5 m 0,5 5,0 0,-5 m 0,5 5,0 0,-5 m 0,5 5,0 0,-5 m 0,5 5.000001,0 0,-5 m 0,5 5,0 0,-5 m 0,5 5.000002,0 0,-5 m 0,5 5,0 0,-5 m 0,5 5,0 0,-5 m 0,5 5,0 0,-5 m 0,5 5,0 0,-5 m 0,5 5,0 0,-5 m 0,5 5,0 0,-5 m 0,5 5,0 0,-5 m 0,5 5,0 0,-5 m 0,5 5,0 0,-5 m 0,5 5,0 0,-5 m 0,5 5,0 0,-5 m 0,5 5,0 0,-5 m 0,5 5,0 0,-5 m 0,5 5,0 0,-5 m 0,5 5,0 0,-5 m 0,5 4.9999995,0 0,-5 m 0,5 5,0 0,-5 m 0,5 4.9999998,0 0,-5"
       style="fill:none;fill-opacity:1;stroke:#000000;stroke-width:1;stroke-linecap:butt;stroke-linejoin:miter;stroke-opacity:1"
       inkscape:connector-curvature="0" />
    <text
       xml:space="preserve"
       style="font-style:normal;font-weight:normal;font-size:40px;line-height:125%;font-family:sans-serif;letter-spacing:0px;word-spacing:0px;fill:#000000;fill-opacity:1;stroke:none;stroke-width:1px;stroke-linecap:butt;stroke-linejoin:miter;stroke-opacity:1"
       x="-337.39096"
       y="455.36203"
       id="text4575"
       sodipodi:linespacing="125%"><tspan
         sodipodi:role="line"
         x="-337.39096"
         y="455.36203"
         id="tspan4579"
         style="font-size:20px">10 m (100*0.1m)</tspan></text>
    <path
       style="opacity:0.326;fill:#ff0000;fill-opacity:1;fill-rule:evenodd;stroke:#ffffff;stroke-width:2.0999999;stroke-miterlimit:4;stroke-dasharray:2.0999999,4.19999981;stroke-dashoffset:0;stroke-opacity:1"
       d="m -439.26578,-55.263772 a 110.10663,110.10663 0 0 0 -0.15039,3.023438 110.10663,110.10663 0 0 0 0.27539,7.789062 110.10663,110.10663 0 0 0 1.32617,10.925781 110.10663,110.10663 0 0 0 2.41016,10.738282 110.10663,110.10663 0 0 0 3.4707,10.445312 110.10663,110.10663 0 0 0 4.49609,10.0449221 110.10663,110.10663 0 0 0 5.47657,9.5468795 110.10663,110.10663 0 0 0 6.40039,8.9531204 110.10663,110.10663 0 0 0 7.26562,8.269529 110.10663,110.10663 0 0 0 8.05274,7.50195 110.10663,110.10663 0 0 0 8.76172,6.66016 110.10663,110.10663 0 0 0 9.38281,5.75195 110.10663,110.10663 0 0 0 9.91015,4.78907 110.10663,110.10663 0 0 0 10.33789,3.77343 110.10663,110.10663 0 0 0 10.66407,2.72266 110.10663,110.10663 0 0 0 10.88281,1.64453 110.10663,110.10663 0 0 0 10.99219,0.55078 110.10663,110.10663 0 0 0 7.78906,-0.27734 110.10663,110.10663 0 0 0 10.92578,-1.32617 110.10663,110.10663 0 0 0 10.73828,-2.41016 110.10663,110.10663 0 0 0 10.44531,-3.4707 110.10663,110.10663 0 0 0 10.04688,-4.49414 110.10663,110.10663 0 0 0 9.54688,-5.47657 110.10663,110.10663 0 0 0 8.95117,-6.40234 110.10663,110.10663 0 0 0 8.26953,-7.26367 110.10663,110.10663 0 0 0 7.50195,-8.052739 110.10663,110.10663 0 0 0 6.66016,-8.7617104 110.10663,110.10663 0 0 0 5.7539,-9.38281651 110.10663,110.10663 0 0 0 4.78711,-9.91210899 110.10663,110.10663 0 0 0 3.77344,-10.3378911 110.10663,110.10663 0 0 0 2.72266,-10.664062 110.10663,110.10663 0 0 0 1.64453,-10.882813 110.10663,110.10663 0 0 0 0.55078,-10.992187 110.10663,110.10663 0 0 0 -0.27539,-7.789063 110.10663,110.10663 0 0 0 -0.80469,-6.626953 c -29.81944,-17.747818 -64.21383,-28.009687 -100.94531,-28.009767 -43.98764,1e-4 -84.64228,14.663568 -118.03711,39.402345 z"
       id="path4684-4"
       inkscape:connector-curvature="0" />
  </g>
</svg>
